<svg version="1.1" xmlns="http://www.w3.org/2000/svg" viewBox="-2070.3749191093443 -1608.575 6724.574919109344 2466.1499999999996"><desc>Created with Snap</desc><defs></defs><g><g transform="matrix(18.5175,0,0,18.5175,-1763.1749,-1301.375)"><path fill="#0560af" d="M79.167,10.416C79.167,4.671,74.494,0,68.75,0c-5.744,0-10.417,4.671-10.417,10.416  c0,5.029,3.585,9.237,8.333,10.205v15.865l-25,19.642v-18.84C46.416,36.319,50,32.112,50,27.083c0-5.745-4.674-10.417-10.417-10.417  s-10.417,4.672-10.417,10.417c0,5.029,3.584,9.236,8.333,10.205v18.84l-25-19.642V20.621c4.749-0.968,8.333-5.176,8.333-10.205  C20.833,4.671,16.16,0,10.417,0C4.673,0,0,4.671,0,10.416c0,5.029,3.585,9.237,8.333,10.205v17.892L37.5,61.426v17.952  c-4.749,0.964-8.333,5.176-8.333,10.205c0,5.741,4.673,10.417,10.417,10.417S50,95.324,50,89.583c0-5.029-3.585-9.241-8.333-10.205  V61.426l29.167-22.913V20.621C75.583,19.653,79.167,15.445,79.167,10.416z M4.167,10.416c0-3.446,2.803-6.25,6.25-6.25  c3.446,0,6.25,2.804,6.25,6.25s-2.804,6.25-6.25,6.25C6.97,16.666,4.167,13.862,4.167,10.416z M68.75,16.666  c-3.447,0-6.25-2.804-6.25-6.25s2.803-6.25,6.25-6.25c3.446,0,6.25,2.804,6.25,6.25S72.197,16.666,68.75,16.666z" style=""></path><desc>Created with Snap</desc><defs></defs></g><g><g transform="matrix(1,0,0,-1,0,0)"><path d="M28 57L42 113Q129 66 213 66Q273 66 315 90Q358 115 358 170Q358 219 322 259Q286 300 235 331Q184 362 133 394Q82 427 46 474Q10 522 10 580Q10 651 61 709Q112 768 184 768Q239 768 306 746Q374 724 420 702L408 662Q294 701 216 701Q168 701 134 670Q100 639 100 590Q100 553 119 523Q138 493 168 471Q199 449 236 428Q274 407 311 383Q348 359 378 331Q409 303 428 260Q447 218 447 165Q447 90 399 42Q351 -5 274 -5Q208 -5 133 13Q59 32 28 57ZM901 97L911 53Q867 37 780 17Q694 -2 652 -2Q609 -2 577 26Q545 55 529 99Q513 144 505 187Q498 231 498 273Q498 523 724 523Q778 523 819 488Q860 454 860 399Q860 369 843 346Q827 323 803 309Q780 296 743 285Q707 274 679 269Q651 264 612 258Q573 252 558 249Q559 220 561 198Q564 176 571 150Q579 125 591 108Q604 92 626 81Q648 70 678 70Q714 70 766 76Q818 83 858 90Q899 97 901 97ZM562 311Q698 350 785 393Q778 426 766 441Q754 456 730 456Q669 456 619 414Q570 372 562 311ZM1288 496L1283 453Q1241 459 1211 459Q1142 459 1097 417Q1052 376 1035 319Q1019 263 1019 194Q1019 162 1023 137Q1027 112 1037 88Q1048 64 1070 50Q1093 37 1126 37Q1170 37 1238 54Q1259 62 1271 62Q1295 62 1300 6Q1212 -22 1137 -22Q1028 -22 989 31Q951 85 951 205Q951 275 960 327Q970 380 994 425Q1018 471 1063 495Q1109 519 1175 519Q1249 519 1288 496ZM1351 213Q1351 253 1359 302Q1368 351 1385 405Q1402 459 1436 495Q1470 531 1515 531Q1611 531 1669 444Q1727 358 1727 252Q1727 207 1717 162Q1708 118 1688 75Q1668 32 1630 3Q1593 -25 1543 -29Q1451 -17 1401 49Q1351 116 1351 213ZM1521 479Q1486 475 1462 415Q1438 355 1431 298Q1424 242 1424 199Q1424 143 1458 95Q1493 48 1536 48Q1567 48 1592 72Q1617 96 1631 131Q1646 167 1653 203Q1661 239 1661 267Q1661 349 1624 410Q1587 471 1521 479ZM1876 400L1880 4Q1865 -4 1844 -4Q1828 -4 1808 1Q1811 64 1812 249Q1813 434 1820 523L1865 513L1868 457Q1921 513 1990 513Q2025 513 2046 508Q2067 503 2086 483Q2106 464 2116 432Q2126 400 2134 340Q2142 281 2145 201Q2149 122 2150 1Q2144 -1 2127 -1Q2091 -1 2071 8Q2067 24 2067 61Q2067 80 2068 132Q2070 185 2070 214Q2070 262 2066 298Q2063 334 2053 369Q2044 404 2024 423Q2005 442 1976 442Q1943 442 1924 437Q1906 432 1898 425Q1891 418 1876 400ZM2604 764L2591 -26L2536 -15Q2536 5 2535 15Q2482 -19 2423 -19Q2332 -19 2281 59Q2231 137 2231 236Q2231 287 2238 332Q2246 377 2264 424Q2283 472 2322 500Q2362 528 2418 528Q2473 528 2521 501Q2529 607 2529 715Q2529 764 2528 787Q2576 778 2604 764ZM2527 81L2524 403Q2512 428 2486 442Q2461 457 2432 457Q2393 457 2365 432Q2338 407 2326 365Q2315 324 2310 288Q2306 252 2306 212Q2306 42 2420 42Q2458 42 2489 52Q2521 63 2527 81ZM2958 57L2972 113Q3059 66 3143 66Q3203 66 3245 90Q3288 115 3288 170Q3288 219 3252 259Q3216 300 3165 331Q3114 362 3063 394Q3012 427 2976 474Q2940 522 2940 580Q2940 651 2991 709Q3042 768 3114 768Q3169 768 3236 746Q3304 724 3350 702L3338 662Q3224 701 3146 701Q3098 701 3064 670Q3030 639 3030 590Q3030 553 3049 523Q3068 493 3098 471Q3129 449 3166 428Q3204 407 3241 383Q3278 359 3308 331Q3339 303 3358 260Q3377 218 3377 165Q3377 90 3329 42Q3281 -5 3204 -5Q3138 -5 3063 13Q2989 32 2958 57ZM3831 97L3841 53Q3797 37 3710 17Q3624 -2 3582 -2Q3539 -2 3507 26Q3475 55 3459 99Q3443 144 3435 187Q3428 231 3428 273Q3428 523 3654 523Q3708 523 3749 488Q3790 454 3790 399Q3790 369 3773 346Q3757 323 3733 309Q3710 296 3673 285Q3637 274 3609 269Q3581 264 3542 258Q3503 252 3488 249Q3489 220 3491 198Q3494 176 3501 150Q3509 125 3521 108Q3534 92 3556 81Q3578 70 3608 70Q3644 70 3696 76Q3748 83 3788 90Q3829 97 3831 97ZM3492 311Q3628 350 3715 393Q3708 426 3696 441Q3684 456 3660 456Q3599 456 3549 414Q3500 372 3492 311ZM3881 48L3903 686L3949 676L3971 29Q3962 -2 3936 -2Q3918 -2 3901 12Q3885 27 3881 48ZM4311 437L4320 391Q4299 388 4250 384Q4201 380 4177 376Q4177 119 4183 3Q4171 -36 4143 -36Q4130 -36 4118 -25Q4107 -14 4103 3Q4103 33 4106 166Q4110 299 4110 372L4034 375Q4032 395 4032 442Q4042 440 4070 437Q4098 434 4108 433Q4111 465 4111 524Q4111 638 4130 680Q4149 722 4221 722Q4298 722 4347 693L4341 657Q4328 657 4300 659Q4273 662 4259 662Q4218 662 4197 644Q4176 626 4176 575Q4176 559 4176 540Q4177 522 4177 517Q4177 480 4176 436Q4192 436 4220 435Q4249 434 4262 434Q4287 434 4311 437Z" fill="#0560af" style=""></path></g></g></g></svg>